<svg class="icon" viewBox="0 0 1024 1024" xmlns="http://www.w3.org/2000/svg" width="200" height="200"><path d="M640 896h85.333v-85.333H640V896zm170.667-512H896v-85.333h-85.333V384zM128 213.333v597.334C128 857.813 166.187 896 213.333 896H384v-85.333H213.333V213.333H384V128H213.333C166.187 128 128 166.187 128 213.333zM810.667 128v85.333H896C896 166.187 857.813 128 810.667 128zM469.333 981.333h85.334V42.667h-85.334v938.666zm341.334-256H896V640h-85.333v85.333zM640 213.333h85.333V128H640v85.333zm170.667 341.334H896v-85.334h-85.333v85.334zm0 341.333C857.813 896 896 857.813 896 810.667h-85.333V896z" fill="#515151"/></svg>