<svg class="icon" viewBox="0 0 1024 1024" xmlns="http://www.w3.org/2000/svg" width="200" height="200"><path d="M563.627 243.2a42.667 42.667 0 0 0 10.24 0l82.773-20.907a42.667 42.667 0 0 0 31.147-51.626 42.667 42.667 0 0 0-51.627-31.147l-81.493 19.627a42.667 42.667 0 0 0 10.24 85.333zM405.76 384h-85.333a42.667 42.667 0 1 0 0 85.333h85.333a42.667 42.667 0 0 0 0-85.333zm170.667 0a42.667 42.667 0 1 0 0 85.333h85.333a42.667 42.667 0 0 0 0-85.333zm-261.12-78.933h10.24l82.773-20.48a42.667 42.667 0 0 0-20.48-84.054l-82.773 20.48a42.667 42.667 0 0 0 10.24 85.334zm-144.64 143.36a42.667 42.667 0 0 0 42.666-42.667v-85.333a42.667 42.667 0 0 0-85.333 0v85.333a42.667 42.667 0 0 0 42.667 42.667zm709.12-354.134a42.667 42.667 0 0 0-36.694-8.96l-42.666 10.24A42.667 42.667 0 0 0 769.28 147.2a42.667 42.667 0 0 0 42.667 32.427 42.667 42.667 0 0 0 84.053-8.96V128a42.667 42.667 0 0 0-16.213-33.707zm-26.454 204.374a42.667 42.667 0 0 0-42.666 42.666v48.64a42.667 42.667 0 0 0 21.76 79.36h20.906A42.667 42.667 0 0 0 896 426.667v-85.334a42.667 42.667 0 0 0-42.667-42.666zm0 256H170.667A42.667 42.667 0 0 0 128 597.333v128A42.667 42.667 0 0 0 160.427 768l682.666 170.667a42.667 42.667 0 0 0 10.24 0A42.667 42.667 0 0 0 896 896V597.333a42.667 42.667 0 0 0-42.667-42.666zm-42.666 286.72L213.333 692.053V640h597.334z" fill="#515151"/></svg>