<svg class="icon" viewBox="0 0 1024 1024" xmlns="http://www.w3.org/2000/svg" width="200" height="200"><path d="M870.4 204.8c-18.637 0-36.147 5.018-51.2 13.773V153.6c0-56.474-45.926-102.4-102.4-102.4-21.094 0-40.653 6.4-56.986 17.357C645.786 28.672 607.795 0 563.2 0s-82.637 28.672-96.614 68.557C450.304 57.6 430.694 51.2 409.6 51.2c-56.474 0-102.4 45.926-102.4 102.4v377.498l-68.915-119.45c-13.363-24.32-35.175-41.626-61.389-48.794-25.549-6.963-52.122-3.276-74.854 10.343-46.439 27.853-64.154 90.829-39.424 140.39 1.536 3.123 34.201 70.042 136.192 273.92 48.025 96 100.71 164.66 156.62 203.981 43.879 30.874 74.19 32.46 79.821 32.46h256c43.571 0 84.07-14.182 120.423-42.086 34.15-26.265 63.795-64.256 88.064-112.844 47.82-95.642 73.113-227.943 73.113-382.67v-179.2c0-56.473-45.926-102.4-102.4-102.4zm51.2 281.6c0 146.79-23.398 271.155-67.686 359.731C825.037 903.885 773.324 972.8 691.2 972.8H435.712c-1.997-.154-23.552-2.56-56.064-26.88-32.41-24.269-82.176-75.366-135.066-181.248C140.8 557.107 108.902 491.725 108.595 491.11c-.051-.102-.051-.153-.102-.204-12.851-25.754-3.738-59.495 19.917-73.677 10.65-6.4 23.09-8.09 35.072-4.864 12.748 3.481 23.45 12.083 30.054 24.166.102.154.205.359.307.512l79.923 138.496c16.333 29.85 34.714 42.394 54.63 37.325 19.969-5.069 30.055-25.037 30.055-59.238V153.6c0-28.211 22.989-51.2 51.2-51.2s51.2 22.989 51.2 51.2v332.8c0 14.131 11.469 25.6 25.6 25.6s25.6-11.469 25.6-25.6v-384c0-28.211 22.989-51.2 51.2-51.2s51.2 22.989 51.2 51.2v384c0 14.131 11.469 25.6 25.6 25.6s25.6-11.469 25.6-25.6V153.6c0-28.211 22.989-51.2 51.2-51.2s51.2 22.989 51.2 51.2v384c0 14.131 11.469 25.6 25.6 25.6s25.6-11.469 25.6-25.6V307.2c0-28.211 22.989-51.2 51.2-51.2s51.2 22.989 51.2 51.2v179.2z" fill="#515151"/></svg>