<svg class="icon" viewBox="0 0 1024 1024" xmlns="http://www.w3.org/2000/svg" width="200" height="200"><path d="M533.333 85.333c-149.333 0-281.6 81.067-349.866 204.8L85.333 192v277.333h277.334L243.2 349.867c55.467-106.667 162.133-179.2 290.133-179.2 174.934 0 320 145.066 320 320 0 174.933-145.066 320-320 320-140.8 0-256-89.6-302.933-213.334h-89.6C187.733 768 345.6 896 533.333 896c226.134 0 405.334-183.467 405.334-405.333S755.2 85.333 533.333 85.333zm-64 213.334v217.6l200.534 119.466L704 580.267l-170.667-102.4v-179.2h-64z" opacity=".9" fill="#515151"/></svg>