<svg class="icon" viewBox="0 0 1024 1024" xmlns="http://www.w3.org/2000/svg" width="200" height="200"><path d="M831.167 607.852c-15.128-6.097-32.063 1.355-38.16 16.483-46.289 115.61-156.479 190.349-281.12 190.349-104.77 0-199.607-52.837-254.476-138.64l193.736 39.514c15.806 3.161 31.386-7 34.547-22.806 3.162-15.806-7-31.386-22.805-34.547l-252.896-51.934h-.903c-.677-.226-1.58-.226-2.258-.226h-3.838c-.678 0-1.355 0-2.033.226-.451 0-.677 0-1.129.226-.677 0-1.129.226-1.806.226-.452 0-.903.226-1.129.226-.452.225-1.129.225-1.58.451-.452.226-.904.226-1.355.452-.226.226-.678.226-.904.226-.225 0-.225.225-.451.225l-1.355.678-1.355.677c-.451.226-.677.452-1.129.678-.451.225-1.129.677-1.58.903-.226 0-.226.226-.452.226-.226.225-.452.225-.452.451-.451.452-.903.678-1.58 1.13-.226.225-.452.45-.903.677l-1.355 1.354c-.226.226-.452.452-.678.904-.451.451-.677.903-1.129 1.354-.225.226-.451.678-.677.904-.226.451-.677.903-.903 1.354-.226.452-.452.678-.678 1.13l-.677 1.354c-.226.452-.452.678-.452 1.13-.225.45-.451.902-.677 1.58-.226.451-.226.677-.452 1.129-.225.677-.451 1.129-.451 1.806 0 .452-.226.678-.226 1.13-.226.677-.226 1.354-.452 2.257v1.13L141.35 887.842c-2.032 16.032 9.258 30.709 25.29 32.967 1.355.226 2.484.226 3.839.226 14.45 0 27.095-10.839 29.128-25.516l21.676-168.672c23.483 31.838 52.386 59.837 85.578 82.868 60.515 41.773 131.19 63.676 205.026 63.676s144.512-22.128 205.026-63.676c58.934-40.643 104.093-97.32 130.738-163.704 5.87-15.129-1.355-32.29-16.484-38.16zm25.967-504.662c-16.031-2.032-30.708 9.258-32.966 25.29L802.49 297.152c-23.483-31.838-52.386-59.837-85.578-82.643-60.514-41.773-131.19-63.675-205.026-63.675-73.61 0-144.511 22.128-205.026 63.675-58.933 40.644-104.093 97.32-130.738 163.705-6.096 15.128 1.355 32.063 16.484 38.16 15.128 6.097 32.063-1.355 38.16-16.483 46.289-115.61 156.479-190.35 281.12-190.35 104.771 0 199.607 52.838 254.476 138.642l-193.736-39.741c-15.806-3.161-31.386 7-34.547 22.806-3.161 15.806 7 31.386 22.806 34.547l253.572 51.708h.452c.677.226 1.58.226 2.258.452h.451c.904 0 1.807.225 2.71.225h2.258c.452 0 .903 0 1.129-.225.452 0 .903-.226 1.355-.226.451 0 .677-.226 1.129-.226s.903-.226 1.58-.452c.226 0 .678-.225.904-.225.677-.226 1.354-.452 1.806-.678.226 0 .226 0 .452-.226.903-.225 1.58-.677 2.483-1.129.226-.225.452-.225.904-.451s.903-.452 1.354-.903c.226-.226.678-.452.904-.678.225 0 .225-.226.451-.226l.452-.451c.451-.452 1.129-.678 1.58-1.13l.678-.677 1.355-1.354c.225-.226.451-.452.677-.904.452-.451.677-.903 1.129-1.354.226-.226.452-.678.677-.904.226-.451.678-.903.904-1.354.225-.452.451-.678.677-1.13l.677-1.354c.226-.452.452-.903.678-1.13l.677-1.354c.226-.452.226-.903.452-1.355.226-.451.226-1.129.451-1.58 0-.452.226-.678.226-1.13.226-.677.226-1.354.452-2.032 0-.225 0-.451.226-.677v-.226l32.966-256.282c2.71-16.258-8.806-30.935-24.838-32.967z" fill="#515151" data-spm-anchor-id="a313x.search_index.0.i5.79943a813nilqH" class="selected"/></svg>