<svg class="icon" viewBox="0 0 1024 1024" xmlns="http://www.w3.org/2000/svg" width="200" height="200"><path d="M512 96c229.76 0 416 186.24 416 416S741.76 928 512 928 96 741.76 96 512 282.24 96 512 96zm14.933 202.667h-29.866A17.067 17.067 0 0 0 480 315.733V480H315.733a17.067 17.067 0 0 0-17.066 17.067v29.866c0 9.387 7.68 17.067 17.066 17.067H480v164.267c0 9.386 7.68 17.066 17.067 17.066h29.866A17.067 17.067 0 0 0 544 708.267V544h164.267a17.067 17.067 0 0 0 17.066-17.067v-29.866A17.067 17.067 0 0 0 708.267 480H544V315.733a17.067 17.067 0 0 0-17.067-17.066z" fill="#515151" fill-opacity=".87"/></svg>