<svg class="icon" viewBox="0 0 1024 1024" xmlns="http://www.w3.org/2000/svg" width="200" height="200"><path d="M213.333 768h597.334q42.666 0 42.666 42.667 0 42.666-42.666 42.666H213.333q-42.666 0-42.666-42.666 0-42.667 42.666-42.667Z" fill="#515151"/><path d="M170.667 810.6669999999999v-85.334q0-42.666 42.666-42.666 42.667 0 42.667 42.666v85.334q0 42.666-42.667 42.666-42.666 0-42.666-42.666ZM768 810.6669999999999v-85.334q0-42.666 42.667-42.666 42.666 0 42.666 42.666v85.334q0 42.666-42.666 42.666-42.667 0-42.667-42.666ZM512 640a42.667 42.667 0 0 1-24.747-7.68L316.587 512a42.667 42.667 0 0 1-10.24-59.307 42.667 42.667 0 0 1 59.733-10.24L512 544.427 657.067 435.2a42.667 42.667 0 0 1 51.2 68.267l-170.667 128A42.667 42.667 0 0 1 512 640z" fill="#515151"/><path d="M512 554.667A42.667 42.667 0 0 1 469.333 512V170.667a42.667 42.667 0 0 1 85.334 0V512A42.667 42.667 0 0 1 512 554.667z" fill="#515151"/></svg>