<svg class="icon" viewBox="0 0 1024 1024" xmlns="http://www.w3.org/2000/svg" width="200" height="200"><path d="M819.2 102.4h-56.535c-18.77 0-45.005 10.875-58.266 24.136l-51.2 51.2-24.125-24.136c-26.573-26.532-70-26.532-96.574 0L266.998 419.103a34.16 34.16 0 0 0 0 48.271l12.073 12.073 289.628-289.638 36.229 36.239-362.025 362.025-.03-.03-92.17 92.23c-26.574 26.523-48.303 78.972-48.272 116.501L102.4 921.6h124.826c37.498 0 89.968-21.73 116.5-48.261l92.242-92.201 461.496-461.496c13.261-13.271 24.136-39.506 24.136-58.276V204.8L819.2 102.4zM295.465 825.068c-13.742 13.731-48.804 28.303-68.24 28.303l-56.534-.03v-56.567c-.031-19.425 14.5-54.466 28.272-68.229l43.93-43.94 96.532 96.543-43.96 43.92zm92.232-92.201-96.533-96.533L653.19 274.3l96.574 96.573-362.066 361.995zM798.034 322.6l-96.563-96.604 72.397-72.397 96.604 96.604-72.438 72.397z" fill="#515151"/></svg>