<svg class="icon" viewBox="0 0 1024 1024" xmlns="http://www.w3.org/2000/svg" width="200" height="200"><path d="M210.773 522.24a42.667 42.667 0 0 0-51.626 32.427L138.24 637.44a42.667 42.667 0 0 0 32.427 50.347 42.667 42.667 0 0 0 51.626-31.147l20.907-82.773a42.667 42.667 0 0 0-32.427-51.627zm725.334 320.853L765.44 160.427A42.667 42.667 0 0 0 725.333 128h-128a42.667 42.667 0 0 0-42.666 42.667v682.666A42.667 42.667 0 0 0 597.333 896H896a42.667 42.667 0 0 0 33.707-16.213 42.667 42.667 0 0 0 8.96-36.694zM640 810.667V213.333h52.053l149.334 597.334zM273.067 273.92a42.667 42.667 0 0 0-52.054 31.147l-20.48 82.773a42.667 42.667 0 0 0 31.147 51.627h10.24a42.667 42.667 0 0 0 42.667-32.427l20.48-82.773a42.667 42.667 0 0 0-32-50.347zm47.36-60.587h85.333a42.667 42.667 0 0 0 0-85.333h-85.333a42.667 42.667 0 0 0 0 85.333zm-139.52 597.334a42.667 42.667 0 0 0-85.334-10.24l-10.24 42.666a42.667 42.667 0 0 0 7.68 36.694A42.667 42.667 0 0 0 128 896h42.667a42.667 42.667 0 0 0 10.24-85.333zm245.76-532.907A42.667 42.667 0 0 0 384 320.427v85.333a42.667 42.667 0 0 0 85.333 0v-85.333a42.667 42.667 0 0 0-42.666-42.667zm0 256A42.667 42.667 0 0 0 384 576.427v85.333a42.667 42.667 0 0 0 85.333 0v-85.333a42.667 42.667 0 0 0-42.666-42.667zm0 256a42.667 42.667 0 0 0-36.694 20.907h-48.64a42.667 42.667 0 0 0 0 85.333h85.334a42.667 42.667 0 0 0 42.666-42.667v-20.906a42.667 42.667 0 0 0-42.666-42.667z" fill="#515151"/></svg>