<svg class="icon" viewBox="0 0 1024 1024" xmlns="http://www.w3.org/2000/svg" width="200" height="200"><path d="M85.344 106.656H256v170.656H85.344V106.656zm0 341.344H256v170.656H85.344V448zM256 277.344h170.656V448H256V277.344zm170.656-170.688h170.656v170.656H426.656V106.656zm0 341.344h170.656v170.656H426.656V448zm170.688-170.656H768V448H597.344V277.344zm0 490.656H426.688V618.656H256.032V768H85.376v170.656h170.656V789.312h170.656v149.344h170.656V789.312H768v149.344h170.656V768H768V618.656H597.344zM768 106.656h170.656v170.656H768V106.656zM768 448h170.656v170.656H768V448z" fill="#515151" data-spm-anchor-id="a313x.search_index.0.i1.70153a81pH8VDw"/></svg>