<svg class="icon" viewBox="0 0 1024 1024" xmlns="http://www.w3.org/2000/svg" width="200" height="200"><path d="M810.667 256H213.333q-42.666 0-42.666-42.667 0-42.666 42.666-42.666h597.334q42.666 0 42.666 42.666 0 42.667-42.666 42.667Z" fill="#515151"/><path d="M853.333 213.333v85.334q0 42.666-42.666 42.666-42.667 0-42.667-42.666v-85.334q0-42.666 42.667-42.666 42.666 0 42.666 42.666ZM256 213.333v85.334q0 42.666-42.667 42.666-42.666 0-42.666-42.666v-85.334q0-42.666 42.666-42.666 42.667 0 42.667 42.666ZM341.333 597.333a42.667 42.667 0 0 1-34.133-17.066 42.667 42.667 0 0 1 8.533-59.734l170.667-128a42.667 42.667 0 0 1 50.347 0l170.666 120.32a42.667 42.667 0 0 1 10.24 59.307 42.667 42.667 0 0 1-59.733 10.24L512 479.573 366.933 588.8a42.667 42.667 0 0 1-25.6 8.533z" fill="#515151"/><path d="M512 896a42.667 42.667 0 0 1-42.667-42.667V512a42.667 42.667 0 0 1 85.334 0v341.333A42.667 42.667 0 0 1 512 896z" fill="#515151"/></svg>