<?xml version="1.0" standalone="no"?><!DOCTYPE svg PUBLIC "-//W3C//DTD SVG 1.1//EN" "http://www.w3.org/Graphics/SVG/1.1/DTD/svg11.dtd"><svg t="1703559162011" class="icon" viewBox="0 0 1024 1024" version="1.1" xmlns="http://www.w3.org/2000/svg" p-id="1064" xmlns:xlink="http://www.w3.org/1999/xlink" width="200" height="200"><path d="M512 96c229.76 0 416 186.24 416 416s-186.24 416-416 416S96 741.76 96 512 282.24 96 512 96zM526.933333 298.666667h-29.866666a17.066667 17.066667 0 0 0-17.066667 17.066666v164.266667H315.733333a17.066667 17.066667 0 0 0-17.066666 17.066667v29.866666c0 9.386667 7.68 17.066667 17.066666 17.066667h164.266667v164.266667c0 9.386667 7.68 17.066667 17.066667 17.066666h29.866666a17.066667 17.066667 0 0 0 17.066667-17.066666v-164.266667h164.266667a17.066667 17.066667 0 0 0 17.066666-17.066667v-29.866666a17.066667 17.066667 0 0 0-17.066666-17.066667h-164.266667V315.733333a17.066667 17.066667 0 0 0-17.066667-17.066666z" fill="#515151" fill-opacity=".87" p-id="1065"></path></svg>