<?xml version="1.0" standalone="no"?><!DOCTYPE svg PUBLIC "-//W3C//DTD SVG 1.1//EN" "http://www.w3.org/Graphics/SVG/1.1/DTD/svg11.dtd"><svg class="icon" width="200px" height="200.00px" viewBox="0 0 1024 1024" version="1.1" xmlns="http://www.w3.org/2000/svg"><path fill="#515151" d="M884.731 698.366H772.909V288.365c0-20.584-16.685-37.275-37.269-37.275H325.639V139.274c0-20.582-16.693-37.273-37.275-37.273-20.582 0-37.275 16.691-37.275 37.273V251.09H139.275c-20.584 0-37.275 16.691-37.275 37.275 0 20.582 16.691 37.273 37.275 37.273H251.09v410.003c0 20.582 16.693 37.269 37.275 37.269h410.003v111.82c0 20.583 16.685 37.269 37.267 37.269 20.589 0 37.275-16.685 37.275-37.269V772.91h111.822c20.582 0 37.269-16.687 37.269-37.269-0.001-20.588-16.688-37.275-37.27-37.275z m-559.092 0V325.638h372.728v372.728H325.639z m0 0"  /></svg>