<?xml version="1.0" standalone="no"?><!DOCTYPE svg PUBLIC "-//W3C//DTD SVG 1.1//EN" "http://www.w3.org/Graphics/SVG/1.1/DTD/svg11.dtd"><svg t="1694850868080" class="icon" viewBox="0 0 1024 1024" version="1.1" xmlns="http://www.w3.org/2000/svg" p-id="6322" xmlns:xlink="http://www.w3.org/1999/xlink" width="200" height="200"><path d="M170.666667 768m42.666666 0l597.333334 0q42.666667 0 42.666666 42.666667l0 0q0 42.666667-42.666666 42.666666l-597.333334 0q-42.666667 0-42.666666-42.666666l0 0q0-42.666667 42.666666-42.666667Z" fill="#515151" p-id="6323"></path><path d="M170.666667 853.333333m0-42.666666l0-85.333334q0-42.666667 42.666666-42.666666l0 0q42.666667 0 42.666667 42.666666l0 85.333334q0 42.666667-42.666667 42.666666l0 0q-42.666667 0-42.666666-42.666666Z" fill="#515151" p-id="6324"></path><path d="M768 853.333333m0-42.666666l0-85.333334q0-42.666667 42.666667-42.666666l0 0q42.666667 0 42.666666 42.666666l0 85.333334q0 42.666667-42.666666 42.666666l0 0q-42.666667 0-42.666667-42.666666Z" fill="#515151" p-id="6325"></path><path d="M512 640a42.666667 42.666667 0 0 1-24.746667-7.68l-170.666666-120.32a42.666667 42.666667 0 0 1-10.24-59.306667 42.666667 42.666667 0 0 1 59.733333-10.24L512 544.426667l145.066667-109.226667a42.666667 42.666667 0 0 1 51.2 68.266667l-170.666667 128a42.666667 42.666667 0 0 1-25.6 8.533333z" fill="#515151" p-id="6326"></path><path d="M512 554.666667a42.666667 42.666667 0 0 1-42.666667-42.666667V170.666667a42.666667 42.666667 0 0 1 85.333334 0v341.333333a42.666667 42.666667 0 0 1-42.666667 42.666667z" fill="#515151" p-id="6327"></path></svg>