<?xml version="1.0" standalone="no"?><!DOCTYPE svg PUBLIC "-//W3C//DTD SVG 1.1//EN" "http://www.w3.org/Graphics/SVG/1.1/DTD/svg11.dtd"><svg t="1694850318596" class="icon" viewBox="0 0 1024 1024" version="1.1" xmlns="http://www.w3.org/2000/svg" p-id="16905" xmlns:xlink="http://www.w3.org/1999/xlink" width="200" height="200"><path d="M819.2 102.4h-56.53504c-18.76992 0-45.0048 10.87488-58.2656 24.13568l-51.2 51.2L629.07392 153.6c-26.5728-26.53184-70.00064-26.53184-96.57344 0L266.99776 419.10272a34.16064 34.16064 0 0 0 0 48.27136l12.07296 12.07296 289.62816-289.6384 36.22912 36.23936-362.02496 362.02496-0.03072-0.03072-92.17024 92.23168c-26.5728 26.5216-48.30208 78.97088-48.27136 116.50048L102.4 921.6h124.8256c37.49888 0 89.96864-21.72928 116.50048-48.26112l92.24192-92.20096 461.49632-461.49632C910.72512 306.37056 921.6 280.13568 921.6 261.36576V204.8L819.2 102.4zM295.46496 825.06752c-13.74208 13.73184-48.80384 28.30336-68.23936 28.30336l-56.53504-0.03072V796.7744c-0.03072-19.42528 14.49984-54.46656 28.27264-68.22912l43.9296-43.93984 96.53248 96.54272-43.96032 43.91936z m92.23168-92.20096l-96.53248-96.53248 362.02496-362.0352 96.57344 96.57344-362.06592 361.99424z m410.33728-410.2656l-96.5632-96.60416 72.3968-72.3968 96.60416 96.60416-72.43776 72.3968z" p-id="16906" fill="#515151"></path></svg>