<?xml version="1.0" standalone="no"?><!DOCTYPE svg PUBLIC "-//W3C//DTD SVG 1.1//EN" "http://www.w3.org/Graphics/SVG/1.1/DTD/svg11.dtd"><svg t="1694849855144" class="icon" viewBox="0 0 1024 1024" version="1.1" xmlns="http://www.w3.org/2000/svg" p-id="9603" xmlns:xlink="http://www.w3.org/1999/xlink" width="200" height="200"><path d="M210.773333 522.24a42.666667 42.666667 0 0 0-51.626666 32.426667l-20.906667 82.773333A42.666667 42.666667 0 0 0 170.666667 687.786667a42.666667 42.666667 0 0 0 51.626666-31.146667l20.906667-82.773333a42.666667 42.666667 0 0 0-32.426667-51.626667z m725.333334 320.853333l-170.666667-682.666666A42.666667 42.666667 0 0 0 725.333333 128h-128a42.666667 42.666667 0 0 0-42.666666 42.666667v682.666666a42.666667 42.666667 0 0 0 42.666666 42.666667h298.666667a42.666667 42.666667 0 0 0 33.706667-16.213333 42.666667 42.666667 0 0 0 8.96-36.693334zM640 810.666667V213.333333h52.053333l149.333334 597.333334zM273.066667 273.92a42.666667 42.666667 0 0 0-52.053334 31.146667L200.533333 387.84a42.666667 42.666667 0 0 0 31.146667 51.626667h10.24a42.666667 42.666667 0 0 0 42.666667-32.426667l20.48-82.773333a42.666667 42.666667 0 0 0-32-50.346667zM320.426667 213.333333h85.333333a42.666667 42.666667 0 0 0 0-85.333333h-85.333333a42.666667 42.666667 0 0 0 0 85.333333zM180.906667 810.666667a42.666667 42.666667 0 0 0-85.333334-10.24l-10.24 42.666666a42.666667 42.666667 0 0 0 7.68 36.693334A42.666667 42.666667 0 0 0 128 896h42.666667a42.666667 42.666667 0 0 0 10.24-85.333333zM426.666667 277.76a42.666667 42.666667 0 0 0-42.666667 42.666667v85.333333a42.666667 42.666667 0 0 0 85.333333 0v-85.333333a42.666667 42.666667 0 0 0-42.666666-42.666667z m0 256a42.666667 42.666667 0 0 0-42.666667 42.666667v85.333333a42.666667 42.666667 0 0 0 85.333333 0v-85.333333a42.666667 42.666667 0 0 0-42.666666-42.666667z m0 256a42.666667 42.666667 0 0 0-36.693334 20.906667H341.333333a42.666667 42.666667 0 0 0 0 85.333333h85.333334a42.666667 42.666667 0 0 0 42.666666-42.666667v-20.906666a42.666667 42.666667 0 0 0-42.666666-42.666667z" p-id="9604" fill="#515151"></path></svg>