<?xml version="1.0" standalone="no"?><!DOCTYPE svg PUBLIC "-//W3C//DTD SVG 1.1//EN" "http://www.w3.org/Graphics/SVG/1.1/DTD/svg11.dtd"><svg t="1702545991424" class="icon" viewBox="0 0 1024 1024" version="1.1" xmlns="http://www.w3.org/2000/svg" p-id="4272" xmlns:xlink="http://www.w3.org/1999/xlink" width="200" height="200"><path d="M640 896h85.333333v-85.333333h-85.333333v85.333333z m170.666667-512h85.333333v-85.333333h-85.333333v85.333333zM128 213.333333v597.333334c0 47.146667 38.186667 85.333333 85.333333 85.333333h170.666667v-85.333333h-170.666667V213.333333h170.666667V128h-170.666667c-47.146667 0-85.333333 38.186667-85.333333 85.333333z m682.666667-85.333333v85.333333h85.333333c0-47.146667-38.186667-85.333333-85.333333-85.333333zM469.333333 981.333333h85.333334V42.666667h-85.333334v938.666666z m341.333334-256h85.333333v-85.333333h-85.333333v85.333333z m-170.666667-512h85.333333V128h-85.333333v85.333333z m170.666667 341.333334h85.333333v-85.333334h-85.333333v85.333334z m0 341.333333c47.146667 0 85.333333-38.186667 85.333333-85.333333h-85.333333v85.333333z" p-id="4273" fill="#515151"></path></svg>