<?xml version="1.0" standalone="no"?><!DOCTYPE svg PUBLIC "-//W3C//DTD SVG 1.1//EN" "http://www.w3.org/Graphics/SVG/1.1/DTD/svg11.dtd"><svg t="1694849870986" class="icon" viewBox="0 0 1024 1024" version="1.1" xmlns="http://www.w3.org/2000/svg" p-id="9778" xmlns:xlink="http://www.w3.org/1999/xlink" width="200" height="200"><path d="M563.626667 243.2a42.666667 42.666667 0 0 0 10.24 0l82.773333-20.906667A42.666667 42.666667 0 0 0 687.786667 170.666667a42.666667 42.666667 0 0 0-51.626667-31.146667L554.666667 159.146667a42.666667 42.666667 0 0 0 10.24 85.333333zM405.76 384h-85.333333a42.666667 42.666667 0 1 0 0 85.333333h85.333333a42.666667 42.666667 0 0 0 0-85.333333z m170.666667 0a42.666667 42.666667 0 1 0 0 85.333333h85.333333a42.666667 42.666667 0 0 0 0-85.333333zM315.306667 305.066667h10.24l82.773333-20.48a42.666667 42.666667 0 0 0-20.48-84.053334l-82.773333 20.48a42.666667 42.666667 0 0 0 10.24 85.333334zM170.666667 448.426667a42.666667 42.666667 0 0 0 42.666666-42.666667v-85.333333a42.666667 42.666667 0 0 0-85.333333 0v85.333333a42.666667 42.666667 0 0 0 42.666667 42.666667z m709.12-354.133334a42.666667 42.666667 0 0 0-36.693334-8.96l-42.666666 10.24a42.666667 42.666667 0 0 0-31.146667 51.626667 42.666667 42.666667 0 0 0 42.666667 32.426667A42.666667 42.666667 0 0 0 896 170.666667V128a42.666667 42.666667 0 0 0-16.213333-33.706667zM853.333333 298.666667a42.666667 42.666667 0 0 0-42.666666 42.666666v48.64a42.666667 42.666667 0 0 0 21.76 79.36H853.333333a42.666667 42.666667 0 0 0 42.666667-42.666666V341.333333a42.666667 42.666667 0 0 0-42.666667-42.666666z m0 256H170.666667a42.666667 42.666667 0 0 0-42.666667 42.666666v128a42.666667 42.666667 0 0 0 32.426667 42.666667l682.666666 170.666667a42.666667 42.666667 0 0 0 10.24 0 42.666667 42.666667 0 0 0 42.666667-42.666667v-298.666667a42.666667 42.666667 0 0 0-42.666667-42.666666z m-42.666666 286.72l-597.333334-149.333334V640h597.333334z" p-id="9779" fill="#515151"></path></svg>