<?xml version="1.0" standalone="no"?><!DOCTYPE svg PUBLIC "-//W3C//DTD SVG 1.1//EN" "http://www.w3.org/Graphics/SVG/1.1/DTD/svg11.dtd"><svg t="1694854421840" class="icon" viewBox="0 0 1024 1024" version="1.1" xmlns="http://www.w3.org/2000/svg" p-id="28174" xmlns:xlink="http://www.w3.org/1999/xlink" width="200" height="200"><path d="M870.4 204.8c-18.6368 0-36.1472 5.0176-51.2 13.7728l0-64.9728c0-56.4736-45.9264-102.4-102.4-102.4-21.0944 0-40.6528 6.4-56.9856 17.3568-14.0288-39.8848-52.0192-68.5568-96.6144-68.5568s-82.6368 28.672-96.6144 68.5568c-16.2816-10.9568-35.8912-17.3568-56.9856-17.3568-56.4736 0-102.4 45.9264-102.4 102.4l0 377.4976-68.9152-119.4496c-13.3632-24.32-35.1744-41.6256-61.3888-48.7936-25.5488-6.9632-52.1216-3.2768-74.8544 10.3424-46.4384 27.8528-64.1536 90.8288-39.424 140.3904 1.536 3.1232 34.2016 70.0416 136.192 273.92 48.0256 96 100.7104 164.6592 156.6208 203.9808 43.8784 30.8736 74.1888 32.4608 79.8208 32.4608l256 0c43.5712 0 84.0704-14.1824 120.4224-42.0864 34.1504-26.2656 63.7952-64.256 88.064-112.8448 47.8208-95.6416 73.1136-227.9424 73.1136-382.6688l0-179.2c0-56.4736-45.9264-102.4-102.4-102.4zM921.6 486.4c0 146.7904-23.3984 271.1552-67.6864 359.7312-28.8768 57.7536-80.5888 126.6688-162.7136 126.6688l-255.488 0c-1.9968-0.1536-23.552-2.56-56.064-26.88-32.4096-24.2688-82.176-75.3664-135.0656-181.248-103.7824-207.5648-135.68-272.9472-135.9872-273.5616-0.0512-0.1024-0.0512-0.1536-0.1024-0.2048-12.8512-25.7536-3.7376-59.4944 19.9168-73.6768 10.6496-6.4 23.0912-8.0896 35.072-4.864 12.7488 3.4816 23.4496 12.0832 30.0544 24.1664 0.1024 0.1536 0.2048 0.3584 0.3072 0.512l79.9232 138.496c16.3328 29.8496 34.7136 42.3936 54.6304 37.3248 19.968-5.0688 30.0544-25.0368 30.0544-59.2384l0-400.0256c0-28.2112 22.9888-51.2 51.2-51.2s51.2 22.9888 51.2 51.2l0 332.8c0 14.1312 11.4688 25.6 25.6 25.6s25.6-11.4688 25.6-25.6l0-384c0-28.2112 22.9888-51.2 51.2-51.2s51.2 22.9888 51.2 51.2l0 384c0 14.1312 11.4688 25.6 25.6 25.6s25.6-11.4688 25.6-25.6l0-332.8c0-28.2112 22.9888-51.2 51.2-51.2s51.2 22.9888 51.2 51.2l0 384c0 14.1312 11.4688 25.6 25.6 25.6s25.6-11.4688 25.6-25.6l0-230.4c0-28.2112 22.9888-51.2 51.2-51.2s51.2 22.9888 51.2 51.2l0 179.2z" fill="#515151" p-id="28175"></path></svg>