<?xml version="1.0" standalone="no"?><!DOCTYPE svg PUBLIC "-//W3C//DTD SVG 1.1//EN" "http://www.w3.org/Graphics/SVG/1.1/DTD/svg11.dtd"><svg t="1702973104380" class="icon" viewBox="0 0 1024 1024" version="1.1" xmlns="http://www.w3.org/2000/svg" p-id="4243" xmlns:xlink="http://www.w3.org/1999/xlink" width="200" height="200"><path d="M533.333333 85.333333C384 85.333333 251.733333 166.4 183.466667 290.133333L85.333333 192 85.333333 469.333333l277.333333 0L243.2 349.866667C298.666667 243.2 405.333333 170.666667 533.333333 170.666667c174.933333 0 320 145.066667 320 320 0 174.933333-145.066667 320-320 320-140.8 0-256-89.6-302.933333-213.333333L140.8 597.333333c46.933333 170.666667 204.8 298.666667 392.533333 298.666667 226.133333 0 405.333333-183.466667 405.333333-405.333333S755.2 85.333333 533.333333 85.333333zM469.333333 298.666667l0 217.6 200.533333 119.466667 34.133333-55.466667-170.666667-102.4L533.333333 298.666667 469.333333 298.666667z" opacity="0.9" p-id="4244" fill="#515151"></path></svg>