<?xml version="1.0" standalone="no"?><!DOCTYPE svg PUBLIC "-//W3C//DTD SVG 1.1//EN" "http://www.w3.org/Graphics/SVG/1.1/DTD/svg11.dtd"><svg class="icon" width="200px" height="200.00px" viewBox="0 0 1024 1024" version="1.1" xmlns="http://www.w3.org/2000/svg"><path fill="#515151" d="M512 212h300v300H512zM212 512h300v300H212z"  /><path fill="#515151" d="M812 992H212a180 180 0 0 1-180-180V212a180 180 0 0 1 180-180h600a180 180 0 0 1 180 180v600a180 180 0 0 1-180 180zM212 152a60 60 0 0 0-60 60v600a60 60 0 0 0 60 60h600a60 60 0 0 0 60-60V212a60 60 0 0 0-60-60z"  /></svg>