<?xml version="1.0" standalone="no"?><!DOCTYPE svg PUBLIC "-//W3C//DTD SVG 1.1//EN" "http://www.w3.org/Graphics/SVG/1.1/DTD/svg11.dtd"><svg t="1702708510489" class="icon" viewBox="0 0 1024 1024" version="1.1" xmlns="http://www.w3.org/2000/svg" p-id="5331" xmlns:xlink="http://www.w3.org/1999/xlink" width="200" height="200"><path d="M831.167365 607.851819c-15.128556-6.096582-32.063506 1.354796-38.160088 16.483352-46.288864 115.609261-156.478942 190.348842-281.120177 190.348842-104.770893 0-199.606615-52.837045-254.475854-138.640794l193.735832 39.514885c15.805954 3.161191 31.386108-6.999779 34.547299-22.805734 3.161191-15.805954-6.999779-31.386108-22.805733-34.547298l-252.895259-51.933848h-0.903198c-0.677398-0.225799-1.580595-0.225799-2.257993-0.2258H202.993605c-0.677398 0-1.354796 0-2.032194 0.2258-0.451599 0-0.677398 0-1.128996 0.225799-0.677398 0-1.128997 0.225799-1.806395 0.225799-0.451599 0-0.903197 0.225799-1.128997 0.2258-0.451599 0.225799-1.128997 0.225799-1.580595 0.451599-0.451599 0.225799-0.903197 0.225799-1.354796 0.451598-0.225799 0.225799-0.677398 0.225799-0.903198 0.2258-0.225799 0-0.225799 0.225799-0.451598 0.225799l-1.354796 0.677398-1.354796 0.677398c-0.451599 0.225799-0.677398 0.451599-1.128997 0.677398-0.451599 0.225799-1.128997 0.677398-1.580595 0.903197-0.225799 0-0.225799 0.225799-0.451599 0.2258-0.225799 0.225799-0.451599 0.225799-0.451599 0.451598-0.451599 0.451599-0.903197 0.677398-1.580595 1.128997-0.225799 0.225799-0.451599 0.451599-0.903197 0.677398l-1.354797 1.354796c-0.225799 0.225799-0.451599 0.451599-0.677398 0.903197-0.451599 0.451599-0.677398 0.903197-1.128996 1.354796-0.225799 0.225799-0.451599 0.677398-0.677398 0.903198-0.225799 0.451599-0.677398 0.903197-0.903198 1.354796-0.225799 0.451599-0.451599 0.677398-0.677398 1.128996l-0.677398 1.354797c-0.225799 0.451599-0.451599 0.677398-0.451598 1.128996-0.225799 0.451599-0.451599 0.903197-0.677398 1.580596-0.225799 0.451599-0.225799 0.677398-0.451599 1.128996-0.225799 0.677398-0.451599 1.128997-0.451599 1.806395 0 0.451599-0.225799 0.677398-0.225799 1.128997-0.225799 0.677398-0.225799 1.354796-0.451599 2.257993v1.128997L141.350386 887.842999c-2.032194 16.031753 9.257773 30.70871 25.289526 32.966703 1.354796 0.225799 2.483793 0.225799 3.838589 0.2258 14.451158 0 27.095921-10.838368 29.128114-25.515326l21.676737-168.672105c23.483131 31.837707 52.385447 59.836825 85.577949 82.868357 60.514223 41.772878 131.189416 63.675413 205.025799 63.675413s144.511577-22.128335 205.0258-63.675413c58.933627-40.643881 104.093495-97.319515 130.737817-163.704521 5.870783-15.128556-1.354796-32.289305-16.483352-38.160088zM857.134289 103.190298c-16.031753-2.032194-30.70871 9.257773-32.966704 25.289526l-21.676736 168.672105c-23.483131-31.837707-52.385447-59.836825-85.577949-82.642557-60.514223-41.772878-131.189416-63.675413-205.0258-63.675414-73.610584 0-144.511577 22.128335-205.025799 63.675414-58.933627 40.643881-104.093495 97.319515-130.737817 163.70452-6.096582 15.128556 1.354796 32.063506 16.483352 38.160088 15.128556 6.096582 32.063506-1.354796 38.160088-16.483352 46.288864-115.609261 156.478942-190.348842 281.120176-190.348842 104.770893 0 199.606615 52.837045 254.475855 138.640794L572.627122 308.441896c-15.805954-3.161191-31.386108 6.999779-34.547298 22.805734-3.161191 15.805954 6.999779 31.386108 22.805733 34.547298l253.572657 51.708049h0.451599c0.677398 0.225799 1.580595 0.225799 2.257993 0.451599h0.451599c0.903197 0 1.806395 0.225799 2.709592 0.225799h2.257993c0.451599 0 0.903197 0 1.128997-0.225799 0.451599 0 0.903197-0.225799 1.354796-0.2258 0.451599 0 0.677398-0.225799 1.128996-0.225799s0.903197-0.225799 1.580596-0.451599c0.225799 0 0.677398-0.225799 0.903197-0.225799 0.677398-0.225799 1.354796-0.451599 1.806395-0.677398 0.225799 0 0.225799 0 0.451599-0.2258 0.903197-0.225799 1.580595-0.677398 2.483792-1.128996 0.225799-0.225799 0.451599-0.225799 0.903198-0.451599s0.903197-0.451599 1.354796-0.903197c0.225799-0.225799 0.677398-0.451599 0.903197-0.677398 0.225799 0 0.225799-0.225799 0.451599-0.2258l0.451598-0.451598c0.451599-0.451599 1.128997-0.677398 1.580596-1.128997l0.677398-0.677398 1.354796-1.354796c0.225799-0.225799 0.451599-0.451599 0.677398-0.903197 0.451599-0.451599 0.677398-0.903197 1.128997-1.354796 0.225799-0.225799 0.451599-0.677398 0.677398-0.903198 0.225799-0.451599 0.677398-0.903197 0.903197-1.354796 0.225799-0.451599 0.451599-0.677398 0.677398-1.128996l0.677398-1.354797c0.225799-0.451599 0.451599-0.903197 0.677398-1.128996l0.677398-1.354796c0.225799-0.451599 0.225799-0.903197 0.451599-1.354796 0.225799-0.451599 0.225799-1.128997 0.451598-1.580596 0-0.451599 0.225799-0.677398 0.2258-1.128996 0.225799-0.677398 0.225799-1.354796 0.451598-2.032194 0-0.225799 0-0.451599 0.2258-0.677398v-0.2258l32.966703-256.282249c2.709592-16.257552-8.806174-30.934509-24.837927-32.966703z" fill="#515151" p-id="5332" data-spm-anchor-id="a313x.search_index.0.i5.79943a813nilqH" class="selected"></path></svg>