<?xml version="1.0" standalone="no"?><!DOCTYPE svg PUBLIC "-//W3C//DTD SVG 1.1//EN" "http://www.w3.org/Graphics/SVG/1.1/DTD/svg11.dtd"><svg class="icon" width="200px" height="200.00px" viewBox="0 0 1024 1024" version="1.1" xmlns="http://www.w3.org/2000/svg"><path fill="#515151" d="M799.5 179c24.6 0 44.5 20 44.5 44.5v575.9c0 24.6-20 44.5-44.5 44.5h-576c-24.6 0-44.5-20-44.5-44.5V223.5c0-24.6 20-44.5 44.5-44.5h576m0-120h-576C132.7 59 59 132.7 59 223.5v575.9C59 890.3 132.7 964 223.5 964h575.9c90.9 0 164.5-73.7 164.5-164.5v-576C964 132.7 890.3 59 799.5 59z" /></svg>