<?xml version="1.0" standalone="no"?><!DOCTYPE svg PUBLIC "-//W3C//DTD SVG 1.1//EN" "http://www.w3.org/Graphics/SVG/1.1/DTD/svg11.dtd"><svg t="1694850896169" class="icon" viewBox="0 0 1024 1024" version="1.1" xmlns="http://www.w3.org/2000/svg" p-id="6500" xmlns:xlink="http://www.w3.org/1999/xlink" width="200" height="200"><path d="M853.333333 256m-42.666666 0l-597.333334 0q-42.666667 0-42.666666-42.666667l0 0q0-42.666667 42.666666-42.666666l597.333334 0q42.666667 0 42.666666 42.666666l0 0q0 42.666667-42.666666 42.666667Z" fill="#515151" p-id="6501"></path><path d="M853.333333 170.666667m0 42.666666l0 85.333334q0 42.666667-42.666666 42.666666l0 0q-42.666667 0-42.666667-42.666666l0-85.333334q0-42.666667 42.666667-42.666666l0 0q42.666667 0 42.666666 42.666666Z" fill="#515151" p-id="6502"></path><path d="M256 170.666667m0 42.666666l0 85.333334q0 42.666667-42.666667 42.666666l0 0q-42.666667 0-42.666666-42.666666l0-85.333334q0-42.666667 42.666666-42.666666l0 0q42.666667 0 42.666667 42.666666Z" fill="#515151" p-id="6503"></path><path d="M341.333333 597.333333a42.666667 42.666667 0 0 1-34.133333-17.066666 42.666667 42.666667 0 0 1 8.533333-59.733334l170.666667-128a42.666667 42.666667 0 0 1 50.346667 0l170.666666 120.32a42.666667 42.666667 0 0 1 10.24 59.306667 42.666667 42.666667 0 0 1-59.733333 10.24L512 479.573333 366.933333 588.8a42.666667 42.666667 0 0 1-25.6 8.533333z" fill="#515151" p-id="6504"></path><path d="M512 896a42.666667 42.666667 0 0 1-42.666667-42.666667v-341.333333a42.666667 42.666667 0 0 1 85.333334 0v341.333333a42.666667 42.666667 0 0 1-42.666667 42.666667z" fill="#515151" p-id="6505"></path></svg>